<?xml version="1.0" encoding="UTF-8"?>
<svg viewBox="0 0 90 180" xmlns="http://www.w3.org/2000/svg">
 <g stroke-linecap="round" stroke-linejoin="round" stroke-width="2.5">
  <path d="m23.094 90.688c-0.72895 0.25636-1.2364 0.8912-1.5938 1.7188-0.35736 0.82755-0.60476 1.8961-0.75 3.1875-0.28336 2.5195-0.17104 7.633 0.15625 13.219 0.32729 5.5858 0.90434 11.568 1.5625 15.719 0.69852 4.4059 1.6325 9.1878 2.5625 13.25 0.93003 4.0622 1.8213 7.3652 2.5312 9.0312 0.12998 0.30502 0.26033 0.59479 0.375 0.8125 0.057329 0.10886 0.095739 0.19122 0.15625 0.28125 0.030251 0.045013 0.06719 0.095093 0.125 0.15625s0.10292 0.24992 0.53125 0.25c0.21846 0 0.43547-0.14339 0.53125-0.25 0.095779-0.10661 0.13293-0.18567 0.15625-0.25 0.046631-0.12868 0.05455-0.19615 0.0625-0.28125 0.015909-0.1702 0.009809-0.36649 0-0.59375-0.019609-0.45454-0.09585-1.087-0.1875-1.875-0.1833-1.576-0.50761-3.7876-0.9375-6.375-2.3615-14.213-2.7589-18.404-2.5938-25.938 0.06448-2.9417 0.23018-7.159 0.375-9.3438 0.14852-2.2405 0.20674-5.5287 0.15625-7.375-0.039129-1.4312-0.073231-2.2583-0.15625-2.875-0.083019-0.61672-0.28227-1.0728-0.53125-1.4062-0.36012-0.48233-0.67469-0.84853-1.125-1.0625s-0.96252-0.15604-1.4062 0z" fill="#f4f8fc"/>
  <g fill="#fff">
   <path d="m46.656 2.5312c-1.6795-0.01353-2.4238 0.15955-3.5625 0.71875-1.5088 0.74094-2.7725 1.9378-4.0312 3.9062-1.2588 1.9685-2.5527 4.718-4.1875 8.75-1.7626 4.3472-2.4753 5.5748-4.25 7.2812-1.4237 1.3689-2.7239 2.1591-5.5625 3.4375-5.3651 2.4162-7.2635 4.2819-9.5625 9.2812-0.81174 1.7652-1.2612 3.1169-1.2812 4.2812-0.01003 0.58215 0.10491 1.1554 0.4375 1.625 0.33259 0.46956 0.888 0.77114 1.4375 0.875 0.2985 0.056419 0.70144 0.06654 1.375 0.125s1.5318 0.14415 2.5625 0.21875c2.0615 0.14921 4.7061 0.3137 7.375 0.46875 1.8789 0.10916 7.4619 0.13632 12.562 0.09375 10.616-0.088589 13.522-0.30233 26.438-2 2.266-0.29786 4.9196-0.63711 5.9062-0.75 1.7047-0.19506 3.0393-0.5814 4-1.3125 0.96072-0.7311 1.4434-1.9164 1.2812-3.125-0.056793-0.42353-0.20845-0.8161-0.40625-1.3438-0.1978-0.52765-0.45361-1.1397-0.71875-1.6875-0.73057-1.5094-1.4778-2.627-2.7812-3.5-1.3035-0.87304-3.0587-1.5122-5.9062-2.4375-3.2671-1.0616-4.012-1.4746-5.7188-3.0312-2.3207-2.1165-3.938-5.1109-5.2812-10.188-1.037-3.919-1.4155-5.0813-2.2188-6.6875-1.6205-3.2403-4.3343-4.9712-7.9062-5z"/>
   <path d="m78.562 40.188c-1.1557 0.030819-2.5432 0.18863-4.3125 0.4375-2.3116 0.32516-6.6764 0.88142-9.6562 1.1875-3.0084 0.30901-5.9901 0.61242-6.875 0.75-2.5053 0.38948-10.323 0.88267-18.625 1.125-8.4858 0.2477-14.622 0.12545-20.312-0.4375-2.581-0.25532-4.574-0.44858-6-0.5625s-2.233-0.15364-2.7812-0.125c-1.593 0.08321-3.0618 1.0515-4.0938 2.4062-1.2015 1.5773-2.04 4.3901-2.2812 6.8438-0.16338 1.6617-0.07921 3.6604 0.15625 5.5312 0.23546 1.8709 0.57392 3.5846 1.1562 4.7812 0.17206 0.35358 0.32144 0.67255 0.59375 1.0312 0.27231 0.3587 0.7211 0.67201 1.1875 0.84375 0.93279 0.34348 2.019 0.4152 4.3438 0.65625 7.5377 0.78158 10.283 0.94872 16.25 1.0938 14.315 0.34796 31.323-0.3413 42.031-1.75 5.8583-0.77066 9.2963-1.2721 11.469-1.7188 2.1724-0.44663 3.2441-0.89779 3.9375-1.6875 0.56968-0.64883 0.97456-1.4706 1.1875-2.4375 0.21294-0.96695 0.27711-2.0929 0.28125-3.6562 0.007843-2.9601-0.39895-5.2909-1.4062-8.375-0.67078-2.0538-1.1226-3.4996-2.0938-4.5625-0.97111-1.0629-2.4157-1.4214-4.1562-1.375zm-3.75 15.594c-0.00679 0.082802 0.007553 0.16836 0 0.25-0.014313 0.15472-0.045578 0.25624-0.0625 0.40625 0.033852-0.21503 0.035583-0.4387 0.0625-0.65625z"/>
   <path d="m76.375 63.062c-0.82806 0.06218-1.8183 0.22148-3.1562 0.40625-9.0096 1.2443-11.921 1.5256-18.469 1.7812-2.8331 0.1106-7.0308 0.32268-9.375 0.46875-6.4985 0.40492-26.906-0.042091-32.156-0.6875-0.50546-0.062141-0.91294-0.11936-1.3125-0.125-0.39956-0.005638-0.85908 0.078117-1.25 0.34375-0.78183 0.53127-0.97381 1.2184-1.5625 2.4375-2.2315 4.6213-3.5401 11.032-4.5938 21.75-0.32926 3.3493-0.39679 6.1149-0.375 15.594 0.04754 20.682 0.89371 32.155 3.4375 45.594 1.4785 7.8109 2.9557 13.136 5.0625 16.969s4.9088 6.1194 8.6562 7.6562c1.3452 0.5517 3.8939 0.981 7.1562 1.4062 3.2624 0.42525 7.1465 0.77524 10.719 0.9375 9.7629 0.44347 18.934-0.32022 27.594-2.3438 5.6372-1.3173 7.9753-2.4757 10.312-5.0938 1.4351-1.6075 2.3398-3.7196 3.4375-7.7188 1.4965-5.4522 1.9968-8.8325 2.6875-17.875 0.19131-2.5047 0.45483-5.3146 0.5625-6.125 0.13013-0.97948 0.41076-4.0454 0.625-6.9688 0.55765-7.609 0.54971-30.533-0.03125-36.562-0.67463-7.0015-2.1247-17.208-3.2812-23.188-0.35269-1.8233-0.76695-4.1722-0.90625-5.1562-0.10546-0.74502-0.16884-1.3401-0.375-1.9062-0.20616-0.56613-0.69718-1.1364-1.3125-1.375-0.62095-0.24075-1.2657-0.28093-2.0938-0.21875zm-52.594 27.094c1.3044 0 2.3805 0.82578 2.75 2.1562 0.091181 0.32832 0.19432 1.8738 0.15625 3.8438-0.038071 1.97-0.1657 4.4762-0.40625 7.2188-0.64116 7.31-0.75291 11.111-0.46875 15.562 0.46844 7.3381 2.1584 18.886 4.1562 28.25 0.68808 3.225 0.99725 5.1839 0.96875 6.2188-0.01425 0.51741-0.09182 0.77486-0.15625 0.875s-0.11509 0.12814-0.375 0.21875c-0.41903 0.14607-0.57218 0.14092-0.40625 0.15625 0.16593 0.015335 0.17504 0.053909-0.125-0.15625-0.21177-0.14833-0.4084-0.37352-0.71875-1.1562-0.31035-0.78273-0.665-2.0669-1.1562-4.0625-0.51361-2.0864-1.5635-6.3386-2.3438-9.4688-2.6233-10.524-3.9937-18.385-4.7812-27.844-0.65563-7.8744-0.75545-11.294-0.46875-14.844 0.23282-2.8829 0.64654-4.7712 1.1875-5.75 0.54096-0.97884 1.0265-1.2188 2.1875-1.2188zm43.031 14.625c0.98935-3.43e-4 1.5455 0.02581 1.8125 0.0625-0.062447 0.10523-0.17459 0.32422-0.5625 0.65625-0.76289 0.653-1.652 1.1215-3.9375 1.7188-2.2855 0.59728-5.8935 1.281-11.844 2.3125-4.1434 0.71829-8.0024 1.0062-10.75 0.90625-1.0876-0.039558-1.8373-0.16909-2.5-0.3125 0.59829-0.074783 1.0957-0.16214 2.2188-0.21875 6.9978-0.35275 10.199-1 19.406-3.9062 3.8424-1.2128 3.8497-1.218 6.1562-1.2188zm3.25 23.562c0.58846-0.048721 0.74923 0.024429 1.125 0.21875 0.31714 0.164 0.39243 0.31235 0.40625 0.34375 0.013817 0.031403 0.036034-0.014053-0.03125 0.125-0.13456 0.27812-0.84224 0.96655-2.125 1.5-0.27885 0.11597-1.2756 0.38474-2.5625 0.625s-2.9183 0.47304-4.7188 0.71875c-3.6009 0.49141-7.8757 0.96481-11.438 1.1875-1.9278 0.12051-5.1339 0.22346-7.0625 0.21875-2.0696-0.005066-3.3446-0.11305-3.875-0.25-0.15011-0.038757-0.10064-0.018814-0.125-0.03125 0.007042-0.022446 0.012589-0.10925 0-0.09375-0.02589 0.031876-0.056149 0.010422 0.125-0.03125 0.3623-0.083328 1.3919-0.090347 3.125 0.0625 4.8972 0.4319 9.4884-0.13509 17.125-2.125 2.1579-0.56232 5.2503-1.3674 6.8438-1.7812 1.6067-0.41731 2.5922-0.63821 3.1875-0.6875zm2.75 20.406c0.43258 0.08075 0.44525 0.17349 0.4375 0.15625-0.007751-0.017242 0.071053 0.17725-0.15625 0.65625-0.23269 0.49039-1.1584 1.2522-2.1875 1.5625-0.25372 0.076492-1.1168 0.2447-2.2188 0.40625-1.102 0.16154-2.5011 0.32724-4.0312 0.5-3.0603 0.3455-6.6576 0.69366-9.5938 0.875-2.4045 0.1485-5.1869 0.24618-7.5625 0.28125-2.0091 0.029648-3.3894-0.035797-4.2812-0.09375 0.63766-0.046005 1.2758-0.095322 2.0312-0.125 8.6681-0.34061 13.571-1.0955 21.812-3.375 2.8329-0.78352 4.8968-1.003 5.75-0.84375z"/>
  </g>
 </g>
 <path d="m20.078 176.38c-6.9342-2.6155-8.7134-8.1541-11.136-14.483-2.2733-8.2732-3.6738-16.752-4.6346-25.269-1.687-12.756-1.3037-25.614-1.4534-38.45 0.02312-6.6524 0.84804-13.16 1.9239-19.626 0.71752-4.4931 2.4148-8.7484 3.4022-13.162-1.7901-0.26492-2.8776-0.5396-3.7807-1.8598-1.1836-1.8612-1.7335-3.9469-2.0391-7.8071 0.1494-3.8104 0.10314-6.7651 2.3548-11.137 1.7358-2.2303 4.59-4.2281 7.4868-3.2251 0.87775-3.3165 1.7665-6.1195 3.51-9.0757 1.7498-3.4042 5.2879-5.7262 8.5254-6.9356 6.8756-2.677 8.5887-7.8319 11.022-14.166 2.3206-6.4042 5.4256-10.841 12.372-10.172 2.8858 0.23636 5.416 1.6678 7.2669 3.9662 3.4066 5.3596 2.583 13.042 7.318 17.631 1.29 1.364 2.6505 2.1952 4.3291 2.7321 1.5855 0.55822 2.7332 1.3065 4.6622 1.7136 3.6971 0.96595 6.5392 4.0456 7.265 7.2009 0.93072 2.0557-0.10552 5.0408 3.0201 4.8262 3.0584-0.13854 4.8839 7.6622 5.7833 11.582 0.81942 3.8458 0.35957 10.518-2.4678 11.564-2.7867 1.6251-4.6214 0.13863-3.4589 4.838 2.6019 14.286 4.8661 28.639 4.787 43.207 0.12201 6.1183-0.28357 12.298-0.4816 18.369 0.029953 3.9605-0.88351 8.2746-0.91872 12.413-1.0129 7.1175-0.86072 14.506-3.007 21.378-0.43788 1.402-0.61672 2.761-1.3076 4.2738-1.032 2.2943-2.339 4.7503-4.6418 6.4031-1.9073 1.38-4.757 2.714-7.6492 3.0723-15.848 4.0412-32.151 3.567-48.052 0.19853zm49.161-2.617c3.3136-0.7916 5.0127-1.8159 7.5204-4.487 1.9609-2.3895 2.5623-5.8626 3.4028-8.9155 2.1949-7.9249 1.7844-16.088 3.0006-24.143 0.70024-10.794 1.3552-21.877 0.63142-32.605 0.20905-8.3542-1.278-16.751-2.3946-24.859-0.5431-4.6219-1.8982-9.0447-2.3118-13.648-0.62662-2.0107-2.7903-0.98126-4.4987-0.94266-3.4792 0.55268-6.672 0.84363-10.014 1.3228-4.657 0.44913-8.646 0.76215-13.247 0.74414-11.43 0.97478-22.919 0.59955-34.358-0.035721-2.152-0.19629-3.959-0.037239-5.6904-0.58241-5.6983 7.5992-6.9995 30.753-6.2671 45.109 0.00282 7.8333 0.3719 15.969 1.0561 23.492 0.90354 8.6735 2.2529 17.261 4.423 25.714 2.2465 7.3916 4.857 12.628 12.455 15.063 15.172 2.5861 31.324 2.8764 46.292-1.2258zm-38.571-18.388c-1.8808 0.84662-2.6496-2.0647-2.942-3.564-0.97702-2.9424-1.4258-6.4671-2.3508-9.4013-2.7572-10.429-4.8826-21.151-5.4808-31.933-0.54974-4.6414-0.72443-10.545-0.20167-15.787 0.31468-1.8062 0.73141-4.0323 2.2904-4.979 2.5947-1.5301 5.3217 0.61263 5.534 3.1142 0.54272 8.7993-1.858 17.592-0.77139 26.54-0.12455 3.3882 2.1911 19.814 4.3798 29.231 0.75376 2.6609 1.586 6.2761-0.45765 6.7799zm-3.7921-22.146c-1.4476-8.8379-2.4161-17.504-1.4724-26.464 0.24307-5.302 0.66561-9.0788 0.23652-13.464-0.13954-1.7265-2.1488-3.4056-3.3465-1.2684-1.2612 2.0748-1.0743 5.158-1.108 7.548 0.13385 10.41 0.50582 18.521 2.892 30.937 0.79 4.9153 3.9271 18.257 4.793 17.217 0.64606-0.54538-1.463-10.501-1.9946-14.506zm16.802 20.894c-4.9824-0.11427-3.936-2.3706 0.33132-1.9934 7.4608-0.12645 15.084-0.91986 22.272-3.2543 3.408-1.0301 8.2978-2.0198 7.8642 0.29695-0.75656 3.6666-6.3231 3.1322-8.9927 3.7057-7.0686 0.83087-14.346 1.3587-21.475 1.2451zm-2.2229-19.949c-4.0586 0.25432-3.6545-3.1181 0.68608-2.1792 10.185 1.7659 25.618-5.1032 28.88-4.5569 3.6377 1.3418 0.089615 3.7373-2.5982 4.353-8.8628 1.7796-17.928 2.4147-26.968 2.383zm-3.401-23.278c-2.4571-1.0255-0.89744-1.7943 1.4746-1.7441 5.6742-0.18213 11.639-0.88758 16.89-2.729 4.0418-1.0142 7.8268-3.08 11.906-2.6654 3.4994 0.74033-0.67306 3.5555-3.3796 4.2925-5.4728 1.1645-11.194 2.1762-16.631 3.0254-3.351 0.26579-6.9842 0.75039-10.261-0.17935zm5.6238-46.103c7.7545-0.50794 15.617-0.45242 23.256-1.5204 5.3532-0.87479 10.92-1.084 16.135-2.5565 2.4678-1.3632 2.1328-4.6838 2.2723-7.086-0.35506-3.7925-1.2563-7.3596-2.768-10.624-1.3302-2.9413-6.102-1.5951-9.2416-1.1696-5.2102 0.78147-11.078 1.0472-16.97 1.9701-8.7188 0.92765-17.692 0.84961-26.465 1.155-4.4388-0.47533-8.7888-0.20617-13.023-0.93668-1.6834-0.086941-3.7245-0.079319-5.3848-0.4497-2.3508-0.55022-4.4657 1.0984-5.3544 2.7327-1.5173 3.6123-1.9005 5.868-1.5197 10.001 0.34294 2.8222 0.57016 4.8889 2.1338 6.8593 9.097 1.0356 18.234 1.8878 27.393 1.7164 3.179-0.016548 6.3582-0.036652 9.5368-0.091866zm1.9303-1.4625c-0.80456-1.6891 0.01746-5.0296 0.050972-8.873 0.14268-2.2672-0.57672-4.5636-0.37002-6.2558 2.0888-1.8995 2.1719 3.0937 2.1643 4.5126-0.17721 1.9246-0.02187 4.027-0.16142 6.4153-0.090569 1.1983 0.67244 4.9899-1.6838 4.2009zm-18.373-0.8349c-0.65695-1.102-0.59641-3.2124-0.70753-5.3625-0.32072-2.4735 1.1839-12.226 3.0216-8.008-1.606 3.5511-1.4421 8.9403-0.82357 12.252 0.41039 1.2514-1.0621 2.4788-1.4905 1.1179zm34.499-7.4803c0.20056-4.5608-1.8185-7.5703-1.3199-8.1816 1.7792-1.5729 2.8375 3.5386 3.0338 5.2125 0.51194 3.5188-0.15121 9.0928-1.2065 10.182-2.5081 1.2386-0.54066-3.9046-0.50745-7.2124zm-49.061 6.327c-1.903-3.1038-0.93867-7.3552-0.33317-10.598 0.50533-1.7891 1.6631-5.5693 3.2153-5.2847 1.2046 0.65386-0.90744 3.2678-1.4286 6.1493-0.65351 2.5181-0.97597 5.9003-0.37852 7.7575 0.64203 1.6878-0.0484 3.224-1.0751 1.9764zm61.085-0.9319c-1.1016-1.6724 0.2905-2.8228 0.38909-5.7796 0.23844-3.4579-0.70628-7.3829-1.5466-9.4985 1.9569-1.2953 2.1282 1.1294 2.6663 2.6139 0.64479 3.1143 1.1355 5.9687 0.58755 9.069-0.22668 0.84783-0.67252 5.0295-2.0963 3.5952zm-34.919-17.602c10.712 0.37336 21.419-1.1514 31.726-2.6226 4.4633-0.06749 8.1583-1.2911 5.305-6.2575-1.4106-4.6198-7.0306-4.9547-11.257-6.6573-5.1943-2.7133-7.5867-7.832-8.7414-13.502-1.2311-4.5436-2.3558-9.517-7.7859-10.375-3.9108-0.89968-7.4392 1.6082-8.985 5.0999-2.1899 3.8081-3.3965 8.0672-5.2209 11.851-2.6325 4.7367-6.648 6.307-10.721 8.0176-2.8961 1.3369-4.5076 3.3191-5.7643 5.4394-1.1895 2.4586-2.372 4.1684-2.4748 6.917 0.15301 1.9387 3.862 1.0695 5.5843 1.5548 6.1119 0.27632 12.208 0.8668 18.335 0.53545z"/>
</svg>
