<?xml version="1.0" encoding="UTF-8"?>
<svg enable-background="new 0 0 928 666" version="1.1" viewBox="0 0 928 666" xmlns="http://www.w3.org/2000/svg">
 <path d="m713.34 30.33c1.95-8.53 9.18-15.65 17.82-17.22 9.06-1.93 18.65 2.38 23.68 10.05 16.27 23.08 32.52 46.16 48.78 69.24 3.87 5.24 5.53 12.03 4.24 18.44-1.76 9.14-9.7 16.7-18.89 18.06-3.6299 0.4-7.28-0.01-10.82-0.74-21.14 19.57-42.91 38.45-64.19 57.86 9.79 33.63 19.28 67.34 29.01 100.99 2.48 7.87 4.03 16.12 3.42 24.4-36.8 0.3-73.61-0.02-110.42 0.16-1.9399-0.1-5.11 0.48-5.2-2.34-8.48-30.1-17.28-60.11-25.74-90.22-4.5601-16.5-0.8101-34.86 9.48-48.48 6.53-8.12 13.95-15.45 21.89-22.18 24.42-21.89 48.85-43.76 73.27-65.64 6.39-5.69 12.55-11.67 19.61-16.54-4.28-6.2-8.84-12.22-12.94-18.55-3.33-5.05-4.3-11.42-3-17.29z"/>
 <path d="m498.61 170.71c13.38-2.26 27.52 4.7 34.37 16.32 6.36 10.48 6.37 24.46 0.02 34.96-2.08 3.49-4.88 6.45-7.67 9.37-27.36 29.3-54.71 58.6-82.07 87.89-4.25 4.62-8.74 9.04-12.68 13.94 37.16 0.31 74.32 0.1 111.48 0.1 0.44 44.56 0.06 89.14 0.19 133.71-0.05 24.12 0.1 48.25-0.07 72.37-49.73 0.25-99.45 0.04-149.18 0.11-11.99-0.11-24.1 0.53-35.97-1.56-33.32-5.48-63.13-28.65-76.47-59.7-10.17-0.54-20.36-0.15-30.53-0.22-4.94 9.95-10.64 19.6-18.27 27.75-15.5 17.13-36.93 28.78-59.76 32.36-16.38 2.55-33.41 1.35-49.13-3.97-20.27-6.68-38.26-19.97-50.76-37.24-13.17-18.07-20.18-40.52-19.5-62.88 0.37-25.46 10.85-50.6 28.57-68.86 14.82-15.63 34.73-26.29 55.92-30.08 21.04-3.74 43.27-0.99 62.57 8.26 30.44 14.2 52.99 44.21 57.64 77.53 5.17 0.16 10.34 0.14 15.51 0.02 4.25-29.06 21.74-55.81 46.63-71.39 2.46-1.48 4.87-3.09 6.84-5.2 50.21-53.79 100.44-107.55 150.63-161.36 5.52-6.43 13.22-11.09 21.69-12.23z"/>
 <path d="m583.87 339.02c77.28 0.04 154.56-0.13 231.84 0.08 0 0 10.957 64.9-30.07 120.51-22.04 29.11-53.02 50.74-86.8 64.14-20.77 8.3-42.73 13.42-64.93 15.87-6.93 1.03-13.94 0.58-20.91 0.66-9.72-0.05-19.43 0.11-29.14-0.08-0.0799-67.06-0.0999-134.12 0.0101-201.18m45.9 41.18c-0.38 9.59-0.06 19.2-0.16 28.8 0.09 28.35-0.18 56.71 0.13 85.07 18.45-2.01 36.66-6.45 53.85-13.47 25.83-10.55 49.67-27.09 66.45-49.6 10.83-14.81 18.72-32.32 20.04-50.78-46.77-0.02-93.54 0.02-140.31-0.02z"/>
 <path d="m45.36 576.39c5.11-1.33 10.43-0.8 15.64-0.88 269.66 0.01 539.33 0.01 808.99 0 13.09-0.19 25.26 9.88 27.75 22.68 2.31 10.62-2.22 22.19-10.94 28.6-5.07 3.85-11.47 5.75-17.81 5.68-272.33-0.04-544.65 0.02-816.97-0.03-14.31 0.08-27.14-12.14-28.01-26.36-1.22-13.33 8.34-26.59 21.35-29.69z"/>
</svg>
